HIERARCHY
ROOT root
{
	OFFSET 0.000000 0.000000 0.000000
	CHANNELS 6 Xposition Yposition Zposition Zrotation Yrotation Xrotation
	JOINT lhip
	{
		OFFSET 0.058581 -0.082280 -0.017664
		CHANNELS 3 Zrotation Yrotation Xrotation
		JOINT lknee
		{
			OFFSET 0.043451 -0.386469 0.008037
			CHANNELS 3 Zrotation Yrotation Xrotation
			JOINT lankle
			{
				OFFSET -0.014790 -0.426874 -0.037428
				CHANNELS 3 Zrotation Yrotation Xrotation
				JOINT ltoe
				{
					OFFSET 0.041054 -0.060286 0.122042
					CHANNELS 3 Zrotation Yrotation Xrotation
					End Site
					{
						OFFSET 0.000000 0.000000 0.000000
					}
				}
			}
		}
	}
	JOINT rhip
	{
		OFFSET -0.060310 -0.090513 -0.013543
		CHANNELS 3 Zrotation Yrotation Xrotation
		JOINT rknee
		{
			OFFSET -0.043257 -0.383688 -0.004843
			CHANNELS 3 Zrotation Yrotation Xrotation
			JOINT rankle
			{
				OFFSET 0.019056 -0.420046 -0.034562
				CHANNELS 3 Zrotation Yrotation Xrotation
				JOINT rtoe
				{
					OFFSET -0.034840 -0.062106 0.130323
					CHANNELS 3 Zrotation Yrotation Xrotation
					End Site
					{
						OFFSET 0.000000 0.000000 0.000000
					}
				}
			}
		}
	}
	JOINT lowerback
	{
		OFFSET 0.004439 0.124404 -0.038385
		CHANNELS 3 Zrotation Yrotation Xrotation
		JOINT upperback
		{
			OFFSET 0.004488 0.137956 0.026820
			CHANNELS 3 Zrotation Yrotation Xrotation
			JOINT chest
			{
				OFFSET -0.002265 0.056032 0.002855
				CHANNELS 3 Zrotation Yrotation Xrotation
				JOINT lowerneck
				{
					OFFSET -0.013390 0.211636 -0.033468
					CHANNELS 3 Zrotation Yrotation Xrotation
					JOINT upperneck
					{
						OFFSET 0.010113 0.088937 0.050410
						CHANNELS 3 Zrotation Yrotation Xrotation
						End Site
						{
							OFFSET 0.000000 0.000000 0.000000
						}
					}
				}
				JOINT lclavicle
				{
					OFFSET 0.071702 0.114000 -0.018898
					CHANNELS 3 Zrotation Yrotation Xrotation
					JOINT lshoulder
					{
						OFFSET 0.122921 0.045205 -0.019046
						CHANNELS 3 Zrotation Yrotation Xrotation
						JOINT lelbow
						{
							OFFSET 0.255332 -0.015649 -0.022946
							CHANNELS 3 Zrotation Yrotation Xrotation
							JOINT lwrist
							{
								OFFSET 0.265709 0.012698 -0.007375
								CHANNELS 3 Zrotation Yrotation Xrotation
								End Site
								{
									OFFSET 0.000000 0.000000 0.000000
								}
							}
						}
					}
				}
				JOINT rclavicle
				{
					OFFSET -0.082954 0.112472 -0.023707
					CHANNELS 3 Zrotation Yrotation Xrotation
					JOINT rshoulder
					{
						OFFSET -0.113228 0.046853 -0.008472
						CHANNELS 3 Zrotation Yrotation Xrotation
						JOINT relbow
						{
							OFFSET -0.260127 -0.014369 -0.031269
							CHANNELS 3 Zrotation Yrotation Xrotation
							JOINT rwrist
							{
								OFFSET -0.269108 0.006794 -0.006027
								CHANNELS 3 Zrotation Yrotation Xrotation
								End Site
								{
									OFFSET 0.000000 0.000000 0.000000
								}
							}
						}
					}
				}
			}
		}
	}
}
MOTION
Frames: 16
Frame Time: 0.033333
0.539832 0.225490 0.988550 87.169875 3.901650 95.871606 6.807702 5.397325 -2.580151 3.770074 -1.184204 -8.564248 -1.939120 11.511781 -2.076864 0.000000 -0.000000 0.000000 -0.882374 -2.616059 -7.319390 -0.857341 1.303493 0.106548 5.242219 -6.466903 -2.436234 0.000000 -0.000000 0.000000 0.267349 0.350749 0.853504 2.978930 -2.678370 -0.511298 0.015348 1.901492 -5.940827 0.130516 -4.783440 3.532120 3.449368 -4.383370 -1.682456 -22.158947 6.899396 -5.530961 -60.941902 -2.226146 24.214144 5.495600 -12.532393 11.868357 -6.647724 -9.572534 11.289026 24.212604 -1.541971 -3.276286 53.661565 4.726587 18.685482 -1.897143 8.948129 7.607656 5.070985 3.012124 7.679847 
0.539866 0.225107 0.988247 87.147082 3.920895 95.733151 6.843443 5.436646 -2.382813 3.769146 -1.207045 -8.662011 -1.963177 11.527101 -1.989755 0.000000 -0.000000 0.000000 -0.832124 -2.694617 -7.197190 -0.897032 1.418709 0.144106 5.444163 -6.498977 -2.484077 0.000000 -0.000000 0.000000 0.330099 0.354015 1.140792 3.029750 -2.695554 -0.955615 0.029755 1.948422 -5.812890 -0.194502 -4.896796 4.123338 3.418343 -4.429885 -1.842376 -22.031213 6.493732 -5.198351 -60.998873 -2.107548 24.123694 5.419226 -12.582819 11.877931 -6.572889 -9.562465 11.041299 23.691556 -1.202205 -3.282386 54.125681 4.378543 18.559812 -2.006279 8.793962 7.518364 5.090035 3.142278 7.519558 
0.540021 0.224602 0.987980 87.210291 3.939433 95.707702 6.885658 5.446430 -2.366057 3.742239 -1.267999 -8.677718 -2.055469 11.532185 -1.974248 0.000000 -0.000000 0.000000 -0.752359 -2.625078 -7.100169 -0.976392 1.380507 0.050606 5.422460 -6.541124 -2.556202 0.000000 -0.000000 0.000000 0.397080 0.262854 1.127407 3.112433 -2.709862 -1.029851 0.012473 2.001753 -5.818466 -0.544635 -4.963178 4.508205 3.451739 -4.543213 -1.892428 -21.969414 6.153236 -4.818923 -60.928277 -2.060184 24.089876 5.258026 -12.802479 11.908813 -6.687531 -9.603852 10.829032 23.146603 -0.808866 -3.290442 54.523539 4.116049 18.601352 -2.015723 8.618831 7.558213 5.205257 3.189583 7.049810 
0.540649 0.223603 0.987600 87.547596 3.906014 96.061335 6.836829 5.224910 -2.796381 3.743978 -1.272613 -8.653012 -2.177276 11.482712 -2.040263 0.000000 -0.000000 0.000000 -0.562271 -2.453719 -7.202601 -1.231097 1.182397 -0.284523 5.204171 -6.609041 -2.695479 0.000000 -0.000000 0.000000 0.088811 -0.163459 -0.113308 3.478902 -3.075332 -0.333067 0.207705 1.165439 -5.611851 -0.489451 -4.055491 4.925348 3.029105 -4.521575 -2.124734 -22.046850 7.136813 -5.308524 -60.917114 -1.719593 24.119454 5.187559 -13.518826 11.910754 -7.661467 -8.968046 11.315690 23.245710 -0.020088 -2.737909 54.014546 5.346761 18.976676 -1.618662 7.737579 7.377539 6.090051 3.100465 7.343487 
0.540520 0.223530 0.987557 87.549751 3.899936 96.063181 6.813476 5.197761 -2.823756 3.756419 -1.270933 -8.626813 -2.179631 11.489568 -2.046070 0.000000 -0.000000 0.000000 -0.558866 -2.444455 -7.214260 -1.242462 1.154498 -0.278406 5.174889 -6.614707 -2.704042 0.000000 -0.000000 0.000000 0.061976 -0.175854 -0.093332 3.493702 -3.127312 -0.362206 0.226960 1.166078 -5.606666 -0.548877 -4.024438 4.959740 3.056228 -4.513447 -2.135346 -22.021023 7.076492 -5.292059 -60.947259 -1.706972 24.138035 5.205262 -13.428364 11.820036 -7.684459 -9.031193 11.316600 23.257752 0.083453 -2.728369 53.965885 5.364212 18.953924 -1.596355 7.662727 7.307843 6.099992 3.143217 7.363448 
0.540395 0.223406 0.987384 87.479630 3.907996 96.067519 6.803123 5.228872 -2.822838 3.768639 -1.314669 -8.649643 -2.204422 11.536847 -2.026470 0.000000 -0.000000 0.000000 -0.525964 -2.424453 -7.241219 -1.273731 1.213181 -0.303208 5.162625 -6.612805 -2.697213 0.000000 -0.000000 0.000000 0.042782 -0.173597 -0.040888 3.441968 -3.152142 -0.396078 0.241138 1.372859 -5.677282 -0.633332 -4.205945 5.074871 3.207041 -4.513039 -2.160746 -21.834908 6.752460 -5.052510 -61.034723 -1.709700 24.151353 5.193878 -13.387510 11.690262 -7.531602 -9.049333 11.209197 23.116727 0.324422 -2.640356 54.075721 5.183589 18.872089 -1.536849 7.593069 7.039571 5.921483 3.224322 7.121776 
0.540140 0.223349 0.987231 87.368956 3.931669 96.043305 6.824647 5.265468 -2.796134 3.770754 -1.315571 -8.647204 -2.204485 11.555082 -2.035872 0.000000 -0.000000 0.000000 -0.483923 -2.411511 -7.281042 -1.279571 1.296600 -0.282816 5.175524 -6.618378 -2.738523 0.000000 -0.000000 0.000000 0.073023 -0.169042 0.018021 3.400995 -3.121637 -0.416570 0.246516 1.456280 -5.667221 -0.622412 -4.319708 4.932593 3.203739 -4.532992 -2.038787 -21.781559 6.559892 -4.918004 -61.043988 -1.737289 24.100998 5.213168 -13.374255 11.641731 -7.421268 -8.934636 11.078800 23.060416 0.423589 -2.613873 54.094142 5.161456 18.843534 -1.482128 7.621770 7.000770 5.863743 3.181171 7.020906 
0.539866 0.223276 0.987200 87.269589 3.955942 96.012246 6.846980 5.315503 -2.755263 3.772765 -1.307003 -8.673853 -2.203844 11.578712 -2.033643 0.000000 -0.000000 0.000000 -0.448815 -2.391310 -7.326470 -1.292893 1.350135 -0.203896 5.166169 -6.584818 -2.753354 0.000000 -0.000000 0.000000 0.081128 -0.170727 0.089567 3.396972 -3.080865 -0.485503 0.257830 1.501354 -5.643765 -0.619005 -4.395433 4.878257 3.182615 -4.549085 -1.997461 -21.790563 6.507306 -4.900361 -61.015833 -1.733673 24.099974 5.224091 -13.344304 11.638505 -7.359199 -8.896027 11.030710 23.031619 0.481569 -2.597548 54.101725 5.139251 18.861311 -1.481115 7.634107 6.974806 5.864844 3.199668 6.920876 
0.539588 0.223274 0.987209 87.239031 3.954507 95.969225 6.851087 5.314421 -2.724576 3.747489 -1.264414 -8.675187 -2.216018 11.550754 -2.042249 0.000000 -0.000000 0.000000 -0.459875 -2.357614 -7.328225 -1.280460 1.321661 -0.154345 5.185214 -6.546924 -2.753000 0.000000 -0.000000 0.000000 0.075981 -0.188604 0.090290 3.438764 -3.115001 -0.458721 0.256770 1.412743 -5.629292 -0.615162 -4.275859 4.873086 3.105342 -4.587933 -1.963279 -21.800002 6.650621 -4.975572 -61.031078 -1.722437 24.063427 5.263855 -13.304363 11.621768 -7.478180 -8.941997 11.087265 23.141866 0.366855 -2.671834 53.982819 5.283907 18.830151 -1.535805 7.633700 7.146503 6.015216 3.198342 7.163425 
0.539401 0.223275 0.987141 87.254245 3.943415 95.947979 6.824230 5.296043 -2.731130 3.772832 -1.275103 -8.631288 -2.198975 11.526279 -2.060219 0.000000 -0.000000 0.000000 -0.472623 -2.357937 -7.311033 -1.283578 1.296486 -0.151898 5.151989 -6.539341 -2.780753 0.000000 -0.000000 0.000000 0.041698 -0.192674 0.050147 3.480679 -3.164433 -0.389132 0.272453 1.383716 -5.630873 -0.613924 -4.145970 4.944011 3.134501 -4.584463 -1.986074 -21.750789 6.673298 -4.970982 -61.113844 -1.716082 24.058067 5.320589 -13.329394 11.591036 -7.474311 -8.897124 11.116663 23.190061 0.332480 -2.689684 53.879921 5.360551 18.767364 -1.531848 7.619345 7.215642 6.071100 3.131102 7.277573 
0.539100 0.223267 0.987058 87.266079 3.945426 95.909547 6.822916 5.294670 -2.718034 3.769617 -1.264897 -8.631055 -2.205118 11.522515 -2.038288 0.000000 -0.000000 0.000000 -0.480471 -2.363514 -7.305550 -1.262801 1.284784 -0.121463 5.160703 -6.494265 -2.774466 0.000000 -0.000000 0.000000 0.052072 -0.199504 0.075591 3.482279 -3.175144 -0.386313 0.282252 1.359456 -5.581893 -0.626518 -4.099189 4.960070 3.132498 -4.565855 -2.016093 -21.727432 6.637921 -4.935802 -61.158494 -1.735460 24.039375 5.377867 -13.380501 11.582829 -7.430329 -8.879504 11.090025 23.227071 0.389050 -2.657789 53.824065 5.438735 18.742763 -1.550686 7.570933 7.191333 6.101701 3.065712 7.246939 
0.538943 0.223209 0.986973 87.282820 3.929762 95.865538 6.805600 5.294108 -2.672165 3.773228 -1.275169 -8.659140 -2.222649 11.520061 -2.043384 0.000000 -0.000000 0.000000 -0.494781 -2.368030 -7.283322 -1.260010 1.284899 -0.077556 5.181509 -6.492127 -2.811370 0.000000 -0.000000 0.000000 0.047343 -0.195037 0.031533 3.478176 -3.176089 -0.310666 0.273355 1.303329 -5.487857 -0.583095 -3.970210 4.868746 3.125843 -4.565445 -2.067304 -21.715517 6.665102 -5.023338 -61.179229 -1.774874 24.016441 5.364839 -13.386736 11.584627 -7.414357 -8.874014 11.108556 23.289803 0.442790 -2.625305 53.762076 5.563794 18.743950 -1.530699 7.511491 7.144030 6.086265 3.057659 7.322989 
0.538771 0.223172 0.986859 87.312260 3.938477 95.846788 6.813105 5.281777 -2.690076 3.786392 -1.295231 -8.625584 -2.234231 11.509441 -2.029256 0.000000 -0.000000 0.000000 -0.473238 -2.347149 -7.295629 -1.262434 1.288497 -0.037048 5.189202 -6.553774 -2.843053 0.000000 -0.000000 0.000000 0.037930 -0.195263 0.029796 3.503120 -3.186328 -0.326176 0.317154 1.283776 -5.421618 -0.626405 -3.888986 5.049027 3.186687 -4.576181 -2.228484 -21.628130 6.634849 -5.055366 -61.405989 -1.913291 24.064131 5.464224 -13.192417 11.925722 -7.718142 -8.680914 10.796787 23.246166 0.480210 -2.554254 53.816621 5.641480 18.791817 -1.611376 7.452942 7.214211 6.210445 3.020497 7.179897 
0.538616 0.223115 0.986682 87.343020 3.942500 95.806771 6.825651 5.277860 -2.686360 3.785708 -1.340974 -8.587570 -2.201278 11.526471 -2.043113 0.000000 -0.000000 0.000000 -0.435345 -2.338095 -7.275442 -1.302333 1.314514 -0.015173 5.140935 -6.600884 -2.904865 0.000000 -0.000000 0.000000 0.048786 -0.195813 0.154968 3.481453 -3.145339 -0.447048 0.329613 1.324260 -5.392495 -0.603983 -3.975716 5.049758 3.189876 -4.516167 -2.177185 -21.673485 6.692060 -5.071454 -61.323800 -1.994578 24.095034 5.357152 -13.302494 12.329874 -7.772157 -8.579914 10.554307 23.281071 0.371840 -2.583101 53.819830 5.593787 18.847125 -1.624097 7.523107 7.344051 6.187788 3.061399 7.038844 
0.538292 0.223075 0.986661 87.394266 3.943165 95.803563 6.838342 5.270362 -2.758848 3.775542 -1.380158 -8.505919 -2.205510 11.488780 -2.063183 0.000000 -0.000000 0.000000 -0.434892 -2.347155 -7.308299 -1.302359 1.278915 0.029425 5.136694 -6.578544 -2.933881 0.000000 -0.000000 0.000000 0.053868 -0.201937 0.222333 3.495500 -3.152759 -0.496796 0.354195 1.366140 -5.411080 -0.664979 -3.992365 5.033455 3.151951 -4.508068 -2.130106 -21.688641 6.576881 -5.054329 -61.411241 -2.010075 24.154582 5.410630 -13.128367 12.274651 -7.626152 -8.647549 10.543120 23.217423 0.398980 -2.582994 53.866791 5.540533 18.812581 -1.612740 7.515963 7.278981 6.105337 3.110779 6.932259 
0.538243 0.223041 0.986598 87.415497 3.933145 95.771656 6.834636 5.264565 -2.744130 3.770362 -1.383013 -8.476858 -2.201125 11.471734 -2.078746 0.000000 -0.000000 0.000000 -0.454740 -2.362276 -7.269228 -1.284586 1.254072 0.027569 5.108247 -6.556141 -2.947248 0.000000 -0.000000 0.000000 0.059377 -0.170439 0.246722 3.493382 -3.150949 -0.445499 0.356007 1.391061 -5.449798 -0.680021 -3.913446 5.033553 3.213249 -4.519284 -2.097051 -21.704126 6.459894 -5.011634 -61.482757 -2.006332 24.127814 5.490737 -13.033094 12.146067 -7.648736 -8.665726 10.531534 23.192371 0.403287 -2.580345 53.882062 5.499905 18.755468 -1.600291 7.555518 7.343061 6.143777 3.096396 6.968332 
